<svg width="110" height="72" viewBox="0 0 110 72" fill="none" xmlns="http://www.w3.org/2000/svg">
<g opacity="0.5" clip-path="url(#clip0_109_38)">
<path d="M22.878 67.6883C33.1365 67.6883 41.4526 59.3806 41.4526 49.1324C41.4526 38.8842 33.1365 30.5764 22.878 30.5764C12.6196 30.5764 4.30347 38.8842 4.30347 49.1324C4.30347 59.3806 12.6196 67.6883 22.878 67.6883Z" fill="#60C0EC"/>
<path d="M22.878 71.0621C10.7742 71.0621 0.92627 61.2241 0.92627 49.1324C0.92627 37.0406 10.7742 27.2026 22.878 27.2026C34.9818 27.2026 44.8297 37.0406 44.8297 49.1324C44.8297 61.2241 34.9818 71.0621 22.878 71.0621ZM22.878 33.9502C14.4992 33.9502 7.68065 40.7619 7.68065 49.1324C7.68065 57.5028 14.4992 64.3145 22.878 64.3145C31.2568 64.3145 38.0753 57.5028 38.0753 49.1324C38.0753 40.7619 31.2568 33.9502 22.878 33.9502Z" fill="#60C0EC"/>
<path d="M80.2904 67.6883C90.5488 67.6883 98.865 59.3806 98.865 49.1324C98.865 38.8842 90.5488 30.5764 80.2904 30.5764C70.0319 30.5764 61.7158 38.8842 61.7158 49.1324C61.7158 59.3806 70.0319 67.6883 80.2904 67.6883Z" fill="#60C0EC"/>
<path d="M80.2903 71.0621C68.1865 71.0621 58.3386 61.2241 58.3386 49.1324C58.3386 37.0406 68.1865 27.2026 80.2903 27.2026C92.3942 27.2026 102.242 37.0406 102.242 49.1324C102.242 61.2241 92.3942 71.0621 80.2903 71.0621ZM80.2903 33.9502C71.9115 33.9502 65.093 40.7619 65.093 49.1324C65.093 57.5028 71.9115 64.3145 80.2903 64.3145C88.6692 64.3145 95.4877 57.5028 95.4877 49.1324C95.4877 40.7619 88.6692 33.9502 80.2903 33.9502Z" fill="#60C0EC"/>
<path d="M4.30346 50.8193C2.43588 50.8193 0.92627 49.3112 0.92627 47.4455C0.92627 21.3996 22.1351 0.212067 48.207 0.212067C50.0746 0.212067 51.5842 1.72016 51.5842 3.58588C51.5842 5.4516 50.0746 6.9597 48.207 6.9597C25.8601 6.9597 7.68066 25.1209 7.68066 47.4455C7.68066 49.3112 6.17105 50.8193 4.30346 50.8193Z" fill="#60C0EC"/>
<path d="M61.7158 50.8193C59.8482 50.8193 58.3386 49.3112 58.3386 47.4455C58.3386 21.3996 79.5474 0.212067 105.619 0.212067C107.487 0.212067 108.997 1.72016 108.997 3.58588C108.997 5.4516 107.487 6.9597 105.619 6.9597C83.2725 6.9597 65.093 25.1209 65.093 47.4455C65.093 49.3112 63.5834 50.8193 61.7158 50.8193Z" fill="#60C0EC"/>
</g>
<defs>
<clipPath id="clip0_109_38">
<rect width="110" height="71.4285" fill="white"/>
</clipPath>
</defs>
</svg>
